<mxGraphModel><root><mxCell id="0"/><mxCell id="1"d parent="0"/></root></mxGraphModel>